{"title":"The.Two.Faces.of.January.2014.720p.H264.5.1ch.MP4.Raven","uid":10934898,"size":714633578,"categoryP":"video","categoryS":"movies","magnet":"?xt=urn:btih:618b66779b3168f88918ddaf7f2296ca5d523143&amp;dn=The.Two.Faces.of.January.2014.720p.H264.5.1ch.MP4.Raven&amp;tr=udp%3A%2F%2Ftracker.openbittorrent.com%3A80&amp;tr=udp%3A%2F%2Fopen.demonii.com%3A1337&amp;tr=udp%3A%2F%2Ftracker.coppersurfer.tk%3A6969&amp;tr=udp%3A%2F%2Fexodus.desync.com%3A6969","seeders":1,"leechers":0,"uploader":"Raven1969","files":-1,"time":1409427473,"description":"The.Two.Faces.of.January.2014.720p.H264.5.1ch.MP4.Raven.\n\n\n\n\nScreen images:\n\n\n &lt;a href=&quot;\nhttp://i.imgur.com/UbGjVcx.png&quot; rel=&quot;nofollow&quot; target=&quot;_NEW&quot;&gt;\nhttp://i.imgur.com/UbGjVcx.png&lt;/a&gt;\n\n\n &lt;a href=&quot;\nhttp://i.imgur.com/ZuC1xZU.png&quot; rel=&quot;nofollow&quot; target=&quot;_NEW&quot;&gt;\nhttp://i.imgur.com/ZuC1xZU.png&lt;/a&gt;\n\n\n &lt;a href=&quot;\nhttp://i.imgur.com/V13Lys1.png&quot; rel=&quot;nofollow&quot; target=&quot;_NEW&quot;&gt;\nhttp://i.imgur.com/V13Lys1.png&lt;/a&gt;\n\n\n &lt;a href=&quot;\nhttp://i.imgur.com/AlqnWll.png&quot; rel=&quot;nofollow&quot; target=&quot;_NEW&quot;&gt;\nhttp://i.imgur.com/AlqnWll.png&lt;/a&gt;\n\n\n\n\nIMDB:\n\n\n\n &lt;a href=&quot;\nhttp://www.imdb.com/title/tt1976000&quot; rel=&quot;nofollow&quot; target=&quot;_NEW&quot;&gt;\nhttp://www.imdb.com/title/tt1976000&lt;/a&gt;\n\n\n\n\nIMDB Rating 6.6\n\n\n\n\n\nStoryline:\n\n\n\nA thriller centered on a con artist, his wife, and a stranger who flee Athens after one of them is caught up in the death of a private detective.\n\n\n\n1962. A glamorous American couple, the charismatic Chester MacFarland (Mortensen) and his alluring younger wife Colette (Dunst), arrive in Athens by boat via the Corinth Canal. While sightseeing at the Acropolis they encounter Rydal (Isaac), a young, Greek-speaking American who is working as a tour guide, scamming tourists on the side. Drawn to Colette's beauty and impressed by Chester's wealth and sophistication, Rydal gladly accepts their invitation to dinner. However, all is not as it seems with the MacFarlands and Chester's affable exterior hides darker secrets. When Rydal visits the couple at their exclusive hotel, Chester presses him to help move the body of a seemingly unconscious man who he claims attacked him. In the moment, Rydal agrees but as events take a more sinister turn he finds himself compromised and unable to pull himself free. His increasing infatuation with the vulnerable and responsive Colette gives rise to Chester's jealousy and paranoia, leading to a tense and ...\n\n\n\n\nGeneral\n\n\nFormat                                   : MPEG-4\nFormat profile                           : Base Media\nCodec ID                                 : isom\nFile size                                : 682 MiB\nDuration                                 : 1h 36mn\nOverall bit rate mode                    : Variable\nOverall bit rate                         : 983 Kbps\nMovie name                               : The Two Faces of January\nContentType                              : Movie\nHDVideo                                  : Yes\n\n\n\nVideo\n\n\nFormat                                   : AVC\nFormat/Info                              : Advanced Video Codec\nFormat profile                           : &lt;a class=&quot;__cf_email__&quot; href=&quot;/cdn-cgi/l/email-protection&quot; data-cfemail=&quot;81cce0e8efc1cdb5afb0&quot;&gt;[email&amp;#160;protected]&lt;/a&gt;&lt;script cf-hash='f9e31' type=&quot;text/javascript&quot;&gt;\n/* &lt;![CDATA[ */!function(){try{var t=&quot;currentScript&quot;in document?document.currentScript:function(){for(var t=document.getElementsByTagName(&quot;script&quot;),e=t.length;e--;)if(t[e].getAttribute(&quot;cf-hash&quot;))return t[e]}();if(t&amp;&amp;t.previousSibling){var e,r,n,i,c=t.previousSibling,a=c.getAttribute(&quot;data-cfemail&quot;);if(a){for(e=&quot;&quot;,r=parseInt(a.substr(0,2),16),n=2;a.length-n;n+=2)i=parseInt(a.substr(n,2),16)^r,e+=String.fromCharCode(i);e=document.createTextNode(e),c.parentNode.replaceChild(e,c)}}}catch(u){}}();/* ]]&gt; */&lt;/script&gt;\nFormat settings, CABAC                   : Yes\nFormat settings, ReFrames                : 4 frames\nCodec ID                                 : avc1\nCodec ID/Info                            : Advanced Video Coding\nDuration                                 : 1h 36mn\nBit rate                                 : 786 Kbps\nMaximum bit rate                         : 4 605 Kbps\nWidth                                    : 1 280 pixels\nHeight                                   : 528 pixels\nDisplay aspect ratio                     : 2.40:1\nFrame rate mode                          : Constant\nFrame rate                               : 29.970 fps\nColor space                              : YUV\nChroma subsampling                       : 4:2:0\nBit depth                                : 8 bits\nScan type                                : Progressive\nBits/(Pixel*Frame)                       : 0.039\nStream size                              : 545 MiB (80%)\nWriting library                          : x264\nLanguage                                 : English\n\n\nAudio\n\n\nFormat                                   : AAC\nFormat/Info                              : Advanced Audio Codec\nFormat profile                           : LC\nCodec ID                                 : 40\nDuration                                 : 1h 36mn\nBit rate mode                            : Variable\nBit rate                                 : 192 Kbps\nMaximum bit rate                         : 303 Kbps\nOriginal Channel count                   : 6 channels\nChannel positions                        : Front: L C R, Side: L R, LFE\nSampling rate                            : 48.0 KHz\nCompression mode                         : Lossy\nStream size                              : 133 MiB (20%)\nLanguage                                 : English\n\n\n\n\nPLEASE COMMENT ON QUALITY AND SEED FOR AS LONG AS POSSIBLE TO KEEP THE TORRENT ALIVE :-","torrent":{"xt":"urn:btih:618b66779b3168f88918ddaf7f2296ca5d523143","amp;dn":"The.Two.Faces.of.January.2014.720p.H264.5.1ch.MP4.Raven","amp;tr":["udp%3A%2F%2Ftracker.openbittorrent.com%3A80","udp%3A%2F%2Fopen.demonii.com%3A1337","udp%3A%2F%2Ftracker.coppersurfer.tk%3A6969","udp%3A%2F%2Fexodus.desync.com%3A6969"],"infoHash":"618b66779b3168f88918ddaf7f2296ca5d523143","infoHashBuffer":{"type":"Buffer","data":[97,139,102,119,155,49,104,248,137,24,221,175,127,34,150,202,93,82,49,67]},"announce":[],"urlList":[]}}